<svg xmlns="http://www.w3.org/2000/svg" viewBox="0 0 247.69 256.73"><defs><style>.cls-1{fill:#fff;}.cls-2{fill:#bcbec0;}</style></defs><title>armchair</title><g id="Layer_2" data-name="Layer 2"><g id="Layer_1-2" data-name="Layer 1"><path class="cls-1" d="M44.57,232.2s2.5-.35,0,0h0C43.94,232.3,44.57,232.2,44.57,232.2Z"/><path class="cls-1" d="M244.54,14.32A50,50,0,0,0,227.9,7.75c-9.47-2.1-37.9-7-50.84-7.65h0c-19.53-1-49.06,6.62-50,6.77-.56-.14-3.34-3.17-9-4.1-6-1-13.17-1.86-18.78-.65C91,3.89,81.73,7.55,76.27,15.54c-4.46,6.54-4.74,15-3.86,22,1.24,10,3.46,24,5.28,35.37.74,4.65,1.72,10.67,2.48,16.11-5.44.07-29.2.49-43.65,4-9.24,2.22-21.11,4-29.29,11.51A23.26,23.26,0,0,0,.12,118.91c-.64,5.81,1.41,12.34,4,16.74,1.52,2.56,4.56,4.41,6.31,5.73,2.48,1.88,4,2.58,5.26,6,.38,10,.57,18.87,1.31,28.93.79,10.64.74,20.88,1.37,31.79,0,7.71,3.35,8.51,7.12,9.4l3.64.82c.42,4.17.89,8.67,1.54,10.75A4.44,4.44,0,0,0,32,231.15a4.23,4.23,0,0,0,2.63.95,57.93,57.93,0,0,0,9.95.1h0a3.15,3.15,0,0,0,1.94-.77,3.84,3.84,0,0,0,1.38-2.4c.06-2.18,0-4.35,0-6.53,26.75,5.8,53.6,11.11,80.35,16.93a30.88,30.88,0,0,0,4.44,1.76c.36,4.07.86,8,1.55,12.55a2,2,0,0,0,1.3,1.63,18.08,18.08,0,0,0,6.9.84c2.46-.2,5.23-.65,7.28-2.57,1-4.24,1.31-9.34,1.76-14.38,10.31-4.54,20.8-9.09,31.09-13.52l12.08,1a4.25,4.25,0,0,0,2.73-1,3.66,3.66,0,0,0,1.28-2.86c0-1.34-.06-2.68-.16-4l7.7-3.3c3.92-1.69,6.65-4.13,7.88-7a31.46,31.46,0,0,0,2-7.4L244.16,29.31a10.61,10.61,0,0,0,3.41-5.9C248.19,19.34,246.33,15.49,244.54,14.32Z"/><path class="cls-2" d="M208.32,108.54c-2.82-1.69-9.09-2.19-9.53-.73-.24.81,3.31.43,8.21,3,4.27,2.23,6.05,6.61,6.79,5.89S211.14,110.23,208.32,108.54Z"/><path class="cls-2" d="M124.22,161.23a9.29,9.29,0,0,0-2.71,1.88c-2.44,0-24.27-4.82-36.49-6.68h0c-14.73-2.23-47.72-6.51-48.69-3.2-.45,1.54,33.3,4.63,47.79,6.83,12,1.83,35.87,5.21,35.87,5.21-.07,4.64.22,10.7.37,15.43a51.17,51.17,0,0,0,2.29,12.8c1.08-1.57.43-5.95,0-12.62-.31-4.41-.49-11.64-.45-15,0-1.15,1.61-2.46,2.69-3.37a13.39,13.39,0,0,1,2.54-1.81C126.86,160.17,125.84,160.48,124.22,161.23Z"/><path class="cls-2" d="M44.57,232.68s2.5-.35,0,0h0C43.94,232.78,44.57,232.68,44.57,232.68Z"/><path class="cls-2" d="M244.54,14.8A50,50,0,0,0,227.9,8.23c-9.47-2.1-37.9-7-50.84-7.65h0C157.53-.46,128,7.2,127,7.35c-.56-.14-3.34-3.17-9-4.1-6-1-13.17-1.85-18.78-.64C91,4.38,81.73,8,76.27,16c-4.46,6.54-4.74,15-3.86,22,1.24,10,3.46,24,5.28,35.38.74,4.64,1.72,10.66,2.48,16.1-5.44.07-29.2.5-43.65,4-9.24,2.22-21.11,4-29.29,11.51A23.26,23.26,0,0,0,.12,119.39c-.64,5.81,1.41,12.34,4,16.75,1.52,2.56,4.56,4.4,6.31,5.73,2.48,1.87,4,2.58,5.26,6,.38,9.95.57,18.86,1.31,28.92.79,10.65.74,20.88,1.37,31.79,0,7.71,3.35,8.52,7.12,9.4l3.64.82c.42,4.18.89,8.67,1.54,10.75A4.44,4.44,0,0,0,32,231.63a4.23,4.23,0,0,0,2.63,1,57.93,57.93,0,0,0,9.95.1h0a3.19,3.19,0,0,0,1.94-.76,3.9,3.9,0,0,0,1.38-2.41c.06-2.17,0-4.35,0-6.52,26.75,5.79,53.6,11.1,80.35,16.92a32.07,32.07,0,0,0,4.44,1.77c.36,4.06.86,8,1.55,12.55a2,2,0,0,0,1.3,1.62,17.89,17.89,0,0,0,6.9.84c2.46-.19,5.23-.65,7.28-2.57,1-4.23,1.31-9.34,1.76-14.38,10.31-4.53,20.8-9.08,31.09-13.52l12.08,1a4.25,4.25,0,0,0,2.73-1,3.64,3.64,0,0,0,1.28-2.86c0-1.34-.06-2.68-.16-4l7.7-3.3c3.92-1.68,6.65-4.13,7.88-6.94a31.68,31.68,0,0,0,2-7.41L244.16,29.79a10.58,10.58,0,0,0,3.41-5.89C248.19,19.82,246.33,16,244.54,14.8Zm-116.4-2.06c5.6-2.61,31.4-6,48.43-5.82h0c11,.11,32.83,3.44,43.86,6.2-4.58,1-11.57,6.56-13.6,9.67-7.4,11.29-8.42,24.05-9.63,35.48-.91,8.63-1.57,20.53-2.34,30.49-.36,4.66-.71,12.09-2,17.21-2.67,1.35-21.94,3.65-32.83,6.25-8.76,2.08-16.9,5-24.62,10.74-4.66,3.47-6.68,8.86-7.82,13.18a131.66,131.66,0,0,0-24.94-3.8c.44-3.28,2.45-10.29,3.65-16.73,1.78-9.53,5.7-20.06,9-30.3.22-15.1,2.75-31.93,5.79-45.94,1.53-7,3-13.42,4.58-18.33C127,16.83,127.32,14.34,128.14,12.74Zm.18,147.49c-.37,11.71-1,25-1.37,35-31-3.45-62.09-8.32-93.13-17.08a89.61,89.61,0,0,1-1.7-17.54,25.85,25.85,0,0,1,3.62-11c1.57-2.47,5.79-4.5,9.13-5l55.67-7.83h0c12.49.9,20.33,3.18,26.43,4.68C126.37,148.33,126.91,153.26,128.32,160.23ZM79.17,37.08c-.74-6-.18-12.72,2.65-16.86,3.8-5.57,11.42-9.25,18.79-10.57h0c5.32-1,10.57-1.56,16.23-.72a12.5,12.5,0,0,1,6.22,2.6c-.87,2.09-1.74,4.56-2.68,7.54-1.62,5.19-3.31,11.65-4.88,18.84-3.09,14.2-4.67,31.39-5,47.07-1.86,4.09-4.8,10.15-6.16,15.3-1.95-2.18-4-4.81-6.56-6.3-3-1.8-7.71-2.81-11.43-3.62-.74-5.5-1-12.32-2-18.16C82.62,60.78,80.39,46.86,79.17,37.08Zm9.74,58.44a15.82,15.82,0,0,1,6.89,2.42,36.75,36.75,0,0,1,7.54,7.18c-1.78,8.4-3.23,17.93-4.47,27,0,0-49.47,7.21-54.9,8.35-3.87.82-9.27,3.32-11.62,8,.92-8.38,1.44-20.51.17-29-.8-5.34-5.69-11.21-11.32-14.25C42,96.82,65.12,94.79,88.91,95.52Zm-65.29,114c-.91-9.37-1.43-23.78-1.68-33.91s-.48-16.5-.79-27.63a12.2,12.2,0,0,0-2.27-7.1c-2.39-2.95-7.12-4.65-9.49-8.16-2.25-3.34-4.55-8.7-4.11-12.1h0C6,115,11,106.46,19.59,109.8c3.1,1.21,8.37,7.35,9.16,10.4,1.38,5.33.88,16,.84,27.89,0,7.69.49,21.5,1,29.28.89,13,.35,21.8.41,34.43C29.32,211.5,25.29,210.61,23.62,209.56Zm19.61,19.28c.07.36-.36,1.6-1.21,1.57-2.18-.06-4.16.09-5.87-.1a2.47,2.47,0,0,1-1.92-1.7c-1-2.32-1.06-5.62-1.25-8.94l9.46,2.11A22.79,22.79,0,0,0,43.23,228.84Zm-9-16c-.07-1.5,0-17.25-.53-29.55h0c31.38,7.68,62.44,12.62,93.47,17.3l1.29,32.24C122,231.46,65.21,219.79,34.24,212.81Zm97-14.36c-.21-13.55,1.08-32.2.39-39.08s-2-13.54-.54-20.46c.28-1.35,1.65-5.43,2.67-6.56a14.66,14.66,0,0,1,21.49,1c4.17,4.82,4.89,11.48,4.36,16.15-.79,6.8-4.81,11.59-10,13.3a9.32,9.32,0,0,1-6.59-.57l-4.63,76.07a33.37,33.37,0,0,1-6.19-2.91S131.46,210.43,131.29,198.45Zm14.87,54.37a5.63,5.63,0,0,1-3.85,1.54,13.61,13.61,0,0,1-5.27-.77,41.54,41.54,0,0,1-.5-10,6,6,0,0,0,5.7.25l4-1.77A36,36,0,0,1,146.16,252.82ZM194.87,223a1.32,1.32,0,0,1-.64,1.33,1.8,1.8,0,0,1-1.1.28l-5.92-.4,7.55-3.25Zm15.64-23.16c-.42,2.56-.61,5.52-2.58,7.65-2.68,2.89-6.25,4.36-10.2,5.9-17.85,7-54.45,23.87-54.45,23.87l3.7-68.75c4.92,1,9.1-1.74,12.56-3.53,3.68-1.11,8.71-3.88,19.37-7.68,10.92-3.89,22.86-9.46,30.94-16.11,4.3-3.54,6.33-7.19,8.24-12.2,2.68-7,2.56-14.34,2.68-20.57.42-23,.29-45.43,2.77-66.33.5-4.27,1-9.59,4.19-12.15,2.38-1.92,7-1.56,9.34.78C237.06,30.82,219.72,143.41,210.51,199.86ZM240.85,23.34c-3.63,2.45-9.28-.82-13.9.87-3.59,1.32-5.12,4.91-6.16,8A53,53,0,0,0,218.66,41c-3.4,23.93-.87,45.47-2.79,66.77-.62,6.83-.51,13.28-2.48,18.42a25.62,25.62,0,0,1-7.07,10.5c-6.63,5.46-19.16,11-29.59,15.4-4.72,2-9.87,4.29-13.26,5.32a56.53,56.53,0,0,0,1.89-7.23,28.86,28.86,0,0,0-5.52-20.6c-3.39-4.51-11.76-9.84-22.4-3.52,4.2-3.23,19.29-7.79,24.6-9.36,9.57-2.83,19.2-3.85,31-6.63,2.62-.62,3.45-3.35,4.14-7a147.13,147.13,0,0,0,2.2-14.7c.77-10.07,1-24,2-31.66C203,43.46,204.12,33.8,209.87,25a40.15,40.15,0,0,1,7.61-7.84,17.09,17.09,0,0,1,8.75-2.66h0c4.69.18,9.82.61,14.1,3.9C242,19.7,243.29,21.7,240.85,23.34Z"/><path class="cls-2" d="M155.44,93.14c7.9.89,23.29,2.82,23.69.25.36-2.34-15.44-4.62-23.33-5.54h0c-8.09-.94-23.78-1.12-24.14.11C130.93,90.53,147.35,92.23,155.44,93.14Z"/></g></g></svg>