<?xml version="1.0" encoding="utf-8"?>
<!-- Generator: Adobe Illustrator 22.0.1, SVG Export Plug-In . SVG Version: 6.00 Build 0)  -->
<svg version="1.1" id="Layer_1" xmlns="http://www.w3.org/2000/svg" xmlns:xlink="http://www.w3.org/1999/xlink" x="0px" y="0px"
	 viewBox="0 0 1715.1 236.7" style="enable-background:new 0 0 1715.1 236.7;" xml:space="preserve">
<style type="text/css">
	.st0{fill:#FFFFFF;}
</style>
<title>desc</title>
<path class="st0" d="M1200.1,182.1v54.6h-13.9V112h-24.8V97.1h4.6c20.7,0,41.3,0,62,0c26.6,0.1,48.9,22.8,47.9,49.5
	c-0.9,22.9-18,42-40.7,45.5C1222,194.2,1210.8,190.4,1200.1,182.1z M1200,111.4c0,17.4,0,33.5,0.1,49.7c0.1,1.5,0.6,2.8,1.5,4
	c8.6,11.5,23.7,16.1,37.3,11.3c14.7-5.2,22.8-17.7,22.2-34.5c-0.4-12.8-10.6-26.2-24.3-28.6C1225,111.2,1212.7,111.9,1200,111.4
	L1200,111.4z"/>
<path class="st0" d="M866.1,45.3H880v77.6l63.1-45l8.4,11.8l-52.2,37l58.2,63.3c-6.9,0-12.7,0.1-18.4-0.1c-1.1,0-2.3-1.1-3.1-2
	c-18.1-19.8-36.2-39.6-54.2-59.4c-0.4-0.4-0.9-0.7-1.4-1v62.2h-14.2V45.3z"/>
<path class="st0" d="M1039.6,190.2c-14.3-1.4-28.4,2-42.2-3c-19.6-7.2-32.3-26.4-31.1-47.3c1.3-22,17.3-40.3,38.9-44.6
	c30.9-5.9,59,19.7,56.9,51.5c-0.3,4-2.5,3.6-5,3.6c-23.1,0-46.3,0-69.4,0h-5.4c2.2,12.5,13,23.2,25.3,24.7c7.9,1,15.9,0.8,23.8,1.1
	c2.6,0.1,5.3,0,8.2,0L1039.6,190.2z M1046.7,136c-3-17.6-19.5-29.3-37.5-26.8c-14.7,2.1-28,15.9-26.7,26.8H1046.7z"/>
<path class="st0" d="M1692.6,176.1v14.1c-14.5-1.2-29,2.3-43-3.2c-19.4-7.5-31.7-26.7-30.3-47.4c1.4-22.3,18.2-40.8,39.1-44.4
	c31.2-5.3,58.4,19.5,56.6,51.3c-0.2,3.8-2.1,3.8-4.8,3.8c-23.2,0-46.3,0-69.4,0h-5.4c1.3,11.6,12.7,22.9,25,24.7
	c5.3,0.6,10.6,1,15.9,1C1681.5,176.2,1686.8,176.1,1692.6,176.1z M1699.6,136c-3.6-17.7-19.6-29.3-36.9-26.9
	c-14.4,2-28.4,15.7-27.3,26.9H1699.6z"/>
<path class="st0" d="M108.5,176.1v14c-23.5-1.3-47.3,3.8-69.4-8.5c-27.8-15.5-42.2-44.2-38.6-73.4C4.7,75,28,50.4,58.7,44
	c21.4-4.4,40.6,0,58.9,12.6c-2.7,3.9-5.3,7.5-8,11.4c-3.6-1.9-7.1-4-10.7-5.8C64.2,45.8,20.6,69,15.2,106.8
	c-4.6,32,15.8,61.4,47.4,68c4.2,0.8,8.5,1.2,12.8,1.2C86.3,176.2,97.1,176.1,108.5,176.1z"/>
<path class="st0" d="M188,131.6c-1.4-16-18.5-25.1-40.3-21.2c-1.7-4.1-3.4-8.4-5.3-13c13.7-5.2,26.7-4.5,39,2.7
	c14.9,8.8,22.4,22.1,22.6,39.4c0.1,12,0,23.9,0,36.4H227V190h-12.6c-17.3,0-34.6,0.1-51.9,0c-13.1,0-30.1-10-32.6-26.7
	c-1.7-11.4,3.8-23.7,14.7-30.3c11.9-7.3,24.4-7.1,37.3-3.3C183.9,130.3,185.9,130.9,188,131.6z M189.5,176.6
	c0-9.3,0.1-17.4-0.1-25.5c-0.2-1.4-1-2.6-2.2-3.4c-8-4.9-17.4-6.9-26.7-5.5c-6.7,1-12.1,4.6-15.1,10.9c-4.2,8.9,2.3,20.1,13.7,21.8
	C168.8,176.4,178.8,176,189.5,176.6L189.5,176.6z"/>
<path class="st0" d="M1501.9,175.9v13.9c-1.8,0.1-3.4,0.2-5.1,0.2c-19.5,0-39,0-58.4,0c-17.1,0-30.5-10.9-33.9-27.6
	c-2.1-10.2,4.4-23,14.8-29.4c11.9-7.3,24.4-7.2,37.3-3.4c2,0.6,4,1.3,6.1,1.9c-1-15.8-18.8-25.2-40.2-21.2l-5.3-13
	c13.7-5.2,26.7-4.5,38.9,2.6c14.9,8.7,22.5,22.1,22.7,39.4c0.2,12,0,23.9,0,36.4L1501.9,175.9z M1464.3,176.5
	c0-9.3,0.1-17.6-0.1-25.9c0-1.2-1.6-2.8-2.8-3.4c-7.7-4.3-16.5-6.2-25.3-5.2c-7.2,0.7-14.6,6.6-16.6,13.2c-1.6,5.5,0.5,11.8,6,15.7
	c2.6,1.9,5.8,3.8,8.8,4.1C1443.9,175.9,1453.7,176,1464.3,176.5L1464.3,176.5z"/>
<path class="st0" d="M456.1,189.9h-13.8v-78h-24.9V97.5h38.4c0.1,2.6,0.3,5.2,0.4,8.4c7.4-6.1,15.2-9.9,24.4-11
	c23.5-2.7,43.7,12.7,50.1,33c1.4,4.8,2.1,9.7,2.1,14.7c0.3,14,0.1,28,0.1,42v5.1h-14.8v-5.5c0-14.7,0-29.3-0.1-44
	c-0.1-13.9-10.8-27-24.4-30.2c-14.8-3.5-30,2.8-36.6,15.5c-0.7,1.6-1.1,3.4-1,5.2c-0.1,17.8,0,35.7,0,53.5L456.1,189.9z"/>
<path class="st0" d="M669,189.8h-14.8v-5.5c0-15,0.1-30-0.1-45c-0.2-14.2-11.7-26.7-27.2-30c-12.4-2.7-28.5,5.1-34,16.5
	c-0.6,1.7-0.9,3.5-0.8,5.3c-0.1,17.6,0,35.3,0,53v5.6h-13.8V112h-24.9V97.6h38.4c0.1,2.6,0.3,5.1,0.4,8.4c7.5-6.2,15.4-10,24.8-11
	c23-2.6,43.7,12.8,49.8,33.5c1.3,4.8,2,9.7,2,14.7C669.2,158.5,669,174,669,189.8z"/>
<path class="st0" d="M380,97.4h14.8V176H419v13.9c-1.6,0.1-3.1,0.2-4.6,0.2c-20.2,0-40.3,0-60.5,0c-21.5,0-42.8-17.9-44.5-39.3
	c-1.4-17.5-0.3-35.2-0.3-53.2h13.6c0.1,1.7,0.2,3.4,0.2,5.2c0,13,0.5,26-0.1,39c-0.7,15.2,10.5,32.7,32.3,34.2
	c8.1,0.6,16.3,0.1,24.9,0.1L380,97.4z"/>
<path class="st0" d="M833,176.1V190c-18.4-0.7-37.3,3.7-53.7-9c-15.4-11.9-21.8-27.8-18.7-46.5c3.3-19.9,15.7-33.3,35.4-38.2
	c16.8-4.2,32.2-0.3,45.4,12.4l-8.7,9.1c-7-2.9-13.1-6.3-19.7-7.9c-16.6-4-34.5,8.7-38.1,25.4c-4.2,19.5,10.1,40.5,33.8,40.7
	C816.6,176.2,824.6,176.1,833,176.1z"/>
<path class="st0" d="M1603.3,109.2l-10.3,9.5c-6.6-6-14.6-9.7-24-9.6c-17.1,0.1-32.2,14.4-32.9,31.8c-0.8,17.6,12,32.2,27.7,34.3
	c4.9,0.6,9.9,0.9,14.9,0.9c5.3,0.1,10.6,0,16.1,0v14c-18.3-0.8-37.3,3.6-53.7-9.1c-15.4-11.9-21.7-27.9-18.6-46.6
	c3.3-19.9,15.8-33,35.4-38.2C1574.3,91.9,1591.7,96.9,1603.3,109.2z"/>
<path class="st0" d="M1329,97.6V111c7.2-8.4,15.5-13.7,25.5-15.3s19.8-1,29.2,4.3c-0.3,0.8-0.5,1.5-0.8,2.2c-4.7,10-4.7,10-15.1,7.7
	c-16.6-3.6-36,9.4-37.7,26.4c-1.4,14.4-0.9,28.9-1.2,43.4c-0.1,3.3,0,6.6,0,10.2h-14V112h-24.6V97.6H1329z"/>
<path class="st0" d="M261.9,176.1h24.5v13.5h-38.3V45.5h13.8V176.1z"/>
<path class="st0" d="M690.4,111.9V97.4h38.3v92.2h-14v-77.7H690.4z"/>
<path class="st0" d="M69.8,20.9c3.7-6.1,7.1-11.2,10-16.6c1.7-3.2,3.7-4.7,7.4-4.3c3,0.3,6,0.1,9.9,0.1c-2.6,4.1-4.8,7.7-7.1,11.3
	c-3.7,5.8-7.5,11.4-11,17.2c-1.6,2.7-3.5,3.1-6.4,3.5c-7.2,1-11.5-1.5-15-8c-4.4-8.1-10-15.6-15.6-24c5,0,9.2-0.2,13.2,0.1
	c1.3,0.1,2.8,1.6,3.5,2.8C62.5,8.7,65.8,14.4,69.8,20.9z"/>
<path class="st0" d="M1011.7,80l-10.7-8.6l25.1-30.5l10.4,8.7L1011.7,80z"/>
<polygon class="st0" points="719.5,61.1 711,71.4 721.7,80 730.1,69.6 "/>
<path class="st0" d="M351.7,80L341,71.4l25.1-30.5l10.4,8.7L351.7,80z"/>
<path class="st0" d="M1422.4,71.3l25-30.4l10.4,8.6l-24.9,30.5L1422.4,71.3z"/>
</svg>
