<svg xmlns="http://www.w3.org/2000/svg" viewBox="0 0 1715.06 236.7"><defs><style>.cls-1{fill:#fff;}</style></defs><title>desc</title><g id="Layer_2" data-name="Layer 2"><g id="Layer_1-2" data-name="Layer 1"><path class="cls-1" d="M1200.07,182.07V236.7h-13.91V112h-24.75V97.14H1166c20.66,0,41.32,0,62,0,26.64.09,48.89,22.77,47.86,49.46a48,48,0,0,1-40.65,45.53C1222,194.17,1210.79,190.41,1200.07,182.07Zm-.08-70.69c0,17.41,0,33.54.07,49.68a7.31,7.31,0,0,0,1.5,4,32.89,32.89,0,0,0,37.3,11.27c14.7-5.21,22.75-17.71,22.23-34.48-.4-12.78-10.6-26.22-24.31-28.61C1225,111.21,1212.71,111.92,1200,111.38Z"/><path class="cls-1" d="M866.09,45.27H880v77.58l63.1-45,8.41,11.8-52.22,37L957.46,190c-6.94,0-12.7.1-18.44-.1-1.08,0-2.3-1.13-3.13-2q-27.17-29.66-54.24-59.38a13.68,13.68,0,0,0-1.36-1V189.7h-14.2Z"/><path class="cls-1" d="M1039.63,190.23c-14.29-1.36-28.4,2-42.22-3a47.73,47.73,0,0,1-31.14-47.33,48.48,48.48,0,0,1,38.87-44.63c30.9-5.86,59,19.67,56.92,51.51-.26,4-2.46,3.57-5,3.57q-34.72,0-69.43,0h-5.38c2.2,12.47,13,23.18,25.33,24.68,7.88,1,15.89.78,23.85,1.06,2.63.09,5.26,0,8.18,0Zm7.08-54.23c-3-17.63-19.52-29.35-37.49-26.75-14.66,2.11-28,15.9-26.66,26.75Z"/><path class="cls-1" d="M1692.6,176.08v14.08c-14.53-1.16-29,2.31-43-3.18a47.47,47.47,0,0,1-30.34-47.39c1.38-22.26,18.22-40.84,39.13-44.37,31.18-5.28,58.37,19.46,56.62,51.34-.2,3.75-2.06,3.8-4.78,3.79q-34.73-.06-69.43,0h-5.43c1.28,11.64,12.66,22.94,25,24.71a142.2,142.2,0,0,0,15.87,1C1681.48,176.21,1686.8,176.08,1692.6,176.08Zm7-40.09c-3.6-17.72-19.64-29.27-36.93-26.9-14.44,2-28.41,15.66-27.27,26.9Z"/><path class="cls-1" d="M108.51,176.08v14c-23.52-1.27-47.28,3.78-69.37-8.54C11.35,166.08-3.09,137.35.56,108.15,4.7,75,28.05,50.37,58.69,44c21.37-4.42,40.64,0,58.91,12.59-2.73,3.88-5.27,7.49-8,11.42-3.61-1.94-7.09-4-10.74-5.76-34.69-16.43-78.26,6.79-83.64,44.53-4.56,32,15.84,61.36,47.44,68A68.44,68.44,0,0,0,75.48,176C86.29,176.19,97.11,176.08,108.51,176.08Z"/><path class="cls-1" d="M188,131.55c-1.4-16-18.52-25.05-40.25-21.18-1.69-4.14-3.41-8.36-5.28-13,13.73-5.19,26.72-4.48,39,2.71,14.91,8.75,22.44,22.12,22.64,39.44.13,12,0,23.92,0,36.38H227V190H214.45c-17.31,0-34.62.06-51.93,0-13.09,0-30.13-10-32.64-26.7-1.71-11.35,3.83-23.69,14.66-30.32,11.9-7.29,24.45-7.11,37.33-3.32C183.88,130.26,185.88,130.9,188,131.55Zm1.46,45c0-9.29.09-17.42-.1-25.54a4.84,4.84,0,0,0-2.16-3.35,39.52,39.52,0,0,0-26.69-5.52c-6.67,1-12.15,4.56-15.13,10.9-4.21,8.93,2.29,20.1,13.71,21.84C168.8,176.36,178.81,176,189.43,176.55Z"/><path class="cls-1" d="M1501.93,175.87v13.94c-1.83.08-3.44.21-5.06.21q-29.22,0-58.43,0c-17.13,0-30.48-10.93-33.9-27.61-2.09-10.17,4.4-23,14.76-29.39,11.9-7.31,24.45-7.15,37.34-3.39,2,.59,4,1.25,6.11,1.91-1-15.8-18.75-25.22-40.16-21.15l-5.32-13c13.66-5.22,26.65-4.53,38.92,2.64,14.92,8.72,22.49,22.07,22.7,39.39.15,12,0,23.94,0,36.41Zm-37.67.68c0-9.34.12-17.62-.13-25.89,0-1.2-1.58-2.76-2.82-3.45A42.34,42.34,0,0,0,1436,142c-7.23.73-14.59,6.58-16.56,13.22-1.63,5.46.53,11.75,6,15.66,2.61,1.87,5.78,3.78,8.85,4.08C1443.92,175.87,1453.69,176,1464.26,176.55Z"/><path class="cls-1" d="M456.08,189.9H442.32v-78H417.47V97.52h38.4c.13,2.63.26,5.2.42,8.41,7.42-6.11,15.19-9.9,24.39-11,23.5-2.73,43.71,12.65,50.14,33a52.74,52.74,0,0,1,2.1,14.66c.27,14,.09,28,.1,42v5.14H518.26v-5.53c0-14.66,0-29.31-.08-44-.12-13.95-10.77-27-24.41-30.24-14.79-3.49-29.95,2.84-36.63,15.46a11.63,11.63,0,0,0-1,5.22c-.07,17.82-.05,35.65-.05,53.47Z"/><path class="cls-1" d="M669,189.82H654.24V184.3c0-15,.08-30-.09-45-.16-14.15-11.65-26.68-27.21-30-12.42-2.66-28.48,5.06-34,16.54a12.71,12.71,0,0,0-.81,5.28c-.06,17.65,0,35.31,0,53v5.65H578.35V112H553.48V97.55h38.36c.13,2.56.27,5.13.44,8.36,7.51-6.17,15.44-10,24.8-11,23-2.55,43.7,12.85,49.79,33.51a55.72,55.72,0,0,1,2,14.67C669.15,158.53,669,174,669,189.82Z"/><path class="cls-1" d="M380,97.4h14.76V176H419v13.87c-1.64.08-3.1.19-4.56.19q-30.24,0-60.48,0c-21.54,0-42.78-17.85-44.5-39.33-1.4-17.49-.29-35.17-.29-53.16h13.62c.08,1.69.23,3.45.23,5.21,0,13,.46,26-.11,39-.66,15.22,10.45,32.7,32.27,34.24,8.09.57,16.26.09,24.86.09Z"/><path class="cls-1" d="M833,176.08V190c-18.41-.69-37.31,3.67-53.74-9-15.44-11.9-21.77-27.83-18.71-46.5,3.27-19.92,15.7-33.25,35.39-38.17,16.82-4.21,32.18-.25,45.43,12.43l-8.67,9.07c-7-2.86-13.12-6.28-19.69-7.86-16.6-4-34.51,8.69-38.09,25.36-4.2,19.48,10.13,40.46,33.75,40.74C816.61,176.16,824.57,176.08,833,176.08Z"/><path class="cls-1" d="M1603.26,109.15,1593,118.7c-6.61-6-14.62-9.7-24-9.63-17.13.13-32.17,14.36-32.9,31.76-.75,17.64,12,32.16,27.72,34.29a142.2,142.2,0,0,0,14.89.93c5.28.15,10.57,0,16.09,0v14c-18.35-.81-37.29,3.61-53.69-9.09-15.4-11.93-21.72-27.88-18.61-46.55,3.32-19.9,15.81-33,35.45-38.16A46.09,46.09,0,0,1,1603.26,109.15Z"/><path class="cls-1" d="M1329,97.56V111c7.2-8.43,15.53-13.69,25.49-15.35s19.83-1,29.22,4.25c-.28.78-.47,1.54-.8,2.23-4.71,10-4.71,10-15.07,7.7-16.61-3.62-36,9.36-37.66,26.38-1.36,14.36-.86,28.9-1.16,43.36-.06,3.3,0,6.61,0,10.21h-14V112h-24.61V97.56Z"/><path class="cls-1" d="M261.91,176.12h24.54v13.51H248.13V45.46h13.78Z"/><path class="cls-1" d="M690.4,111.87V97.42h38.31v92.2h-14V111.87Z"/><path class="cls-1" d="M69.8,20.91c3.72-6.07,7.14-11.18,10-16.56,1.72-3.19,3.7-4.7,7.4-4.28,3,.33,6,.06,9.94.06-2.6,4.13-4.82,7.72-7.09,11.27-3.67,5.75-7.54,11.38-11,17.24-1.57,2.66-3.47,3.15-6.36,3.53-7.17.95-11.54-1.55-15-8-4.43-8.09-10-15.55-15.58-24,5,0,9.15-.23,13.22.14,1.28.11,2.75,1.61,3.55,2.85C62.47,8.72,65.85,14.44,69.8,20.91Z"/><path class="cls-1" d="M711.68,80,701,71.43l25.09-30.52,10.37,8.66Z"/><path class="cls-1" d="M351.68,80,341,71.43l25.09-30.52,10.37,8.66Z"/><path class="cls-1" d="M1422.39,71.33l25-30.44,10.4,8.64-24.94,30.53Z"/></g></g></svg>