<svg xmlns="http://www.w3.org/2000/svg" viewBox="0 0 245.69 217.02"><defs><style>.cls-1{fill:#fff;}.cls-2{fill:#ac1f23;}</style></defs><title>logo-wbg3</title><g id="Layer_2" data-name="Layer 2"><g id="Layer_1-2" data-name="Layer 1"><rect class="cls-1" y="10.79" width="245.69" height="15.85"/><rect class="cls-1" y="51.34" width="245.69" height="15.85"/><rect class="cls-1" y="89.6" width="245.69" height="15.85"/><path class="cls-2" d="M55.58,196.11a7.54,7.54,0,0,1-3.07.95,11.87,11.87,0,0,1-3.71-.29,13.14,13.14,0,0,1-3.8-1.56c-3.69-2.2-7.28-4.59-10.73-7.14l2.1-2.89q5.06,3.75,10.48,7a6.75,6.75,0,0,0,1.89.76,6.38,6.38,0,0,0,1.9.16,4.32,4.32,0,0,0,1.58-.43,2.53,2.53,0,0,0,1-1,3.23,3.23,0,0,0,.34-1.2,3.52,3.52,0,0,0-.2-1.44,4.82,4.82,0,0,0-.88-1.5,6,6,0,0,0-1.63-1.37c-1.22-.74-1.83-1.11-3-1.89a14.41,14.41,0,0,1-5.59-5.94,5.43,5.43,0,0,1,.69-5.76,5.13,5.13,0,0,1,2.34-1.8,7.56,7.56,0,0,1,3.09-.44,11.34,11.34,0,0,1,3.49.74,18.34,18.34,0,0,1,3.68,1.84,37.61,37.61,0,0,1,3.9,2.87,46.69,46.69,0,0,1,4.11,3.85c-1.2.86-1.81,1.28-3,2.12a30.18,30.18,0,0,0-3.6-3.37,39,39,0,0,0-3.42-2.47,9.24,9.24,0,0,0-4.18-1.66,2.71,2.71,0,0,0-2.65,1,2.44,2.44,0,0,0-.53,1.65,3.57,3.57,0,0,0,.52,1.55,5.94,5.94,0,0,0,1.3,1.44,21.37,21.37,0,0,0,1.81,1.31c1.19.78,1.79,1.16,3,1.92a11.71,11.71,0,0,1,2.93,2.41,10.5,10.5,0,0,1,1.81,2.92,8,8,0,0,1,.65,2.93,5.57,5.57,0,0,1-.6,2.68,5.1,5.1,0,0,1-2,2.09"/><path class="cls-2" d="M96.32,203.6a3,3,0,0,1-.32.85,119.54,119.54,0,0,1-25.42-7.72,6.82,6.82,0,0,0,.35,3,9.86,9.86,0,0,0,1.63,2.85A13,13,0,0,0,75.25,205a13.62,13.62,0,0,0,3.58,1.73c3.36,1.08,5,1.57,8.46,2.45l-.9,3.46c-3.48-.9-5.22-1.4-8.66-2.51a19.92,19.92,0,0,1-6-3.06,16.17,16.17,0,0,1-4.07-4.38,11.5,11.5,0,0,1-1.73-5,9.22,9.22,0,0,1,.79-4.86,10,10,0,0,1,3-3.83,13.55,13.55,0,0,1,4.47-2.29,17.42,17.42,0,0,1,5.32-.75,18.29,18.29,0,0,1,5.63.92,17.51,17.51,0,0,1,5.11,2.56,16.68,16.68,0,0,1,3.81,3.69,13.91,13.91,0,0,1,2.28,4.47,10.08,10.08,0,0,1,.24,4.88c-.08.38-.17.74-.26,1.1m-4.63-6.68A9.9,9.9,0,0,0,90,194.15a11.84,11.84,0,0,0-2.59-2.25,14,14,0,0,0-6.92-2.23,12.06,12.06,0,0,0-3.44.31,9.67,9.67,0,0,0-3,1.26,7.72,7.72,0,0,0-2.27,2.14,116.93,116.93,0,0,0,20.5,6.6,7.81,7.81,0,0,0-.57-3.06"/><path class="cls-2" d="M128.81,197.63a13.15,13.15,0,0,0-4.56-.84,12.6,12.6,0,0,0-4,.6,11.67,11.67,0,0,0-3.39,1.68,9.55,9.55,0,0,0-2.45,2.54,7,7,0,0,0-1.12,3.26l-1,12.15c-2-.16-3-.26-4.92-.48l2.3-20c-3-.35-4.52-.56-7.52-1.08.24-1.41.36-2.11.61-3.52a110,110,0,0,0,11.43,1.51l-.3,3.67a11.86,11.86,0,0,1,4.63-2.86,16.34,16.34,0,0,1,5.75-1,17.87,17.87,0,0,1,6.3,1.14c-.69,1.32-1,2-1.76,3.28"/><path class="cls-2" d="M152,216.18a145.78,145.78,0,0,1-18.06-22.64c1.87-.13,2.8-.21,4.66-.41a133,133,0,0,0,12,15,132.26,132.26,0,0,0,6.18-18.24c1.83-.46,2.74-.71,4.55-1.23A147,147,0,0,1,152,216.18"/><path class="cls-2" d="M179.89,207.45c-2.87-7.53-4.31-11.29-7.18-18.81-2.85,1.09-4.29,1.59-7.19,2.51-.43-1.36-.65-2-1.08-3.41a109.39,109.39,0,0,0,11-4l9.18,21.85c-1.88.79-2.83,1.17-4.73,1.9m-8-31.08a3,3,0,0,1-1.67,1.52,3.08,3.08,0,0,1-2.31,0,2.49,2.49,0,0,1-1.49-1.52,2.57,2.57,0,0,1,.13-2.1,3.08,3.08,0,0,1,3.86-1.51,2.6,2.6,0,0,1,1.53,1.43,2.51,2.51,0,0,1,0,2.14"/><path class="cls-2" d="M214.17,183.65a7.85,7.85,0,0,1-.52,3.21,12,12,0,0,1-1.92,3.24,13.93,13.93,0,0,1-3.08,2.75c-4.32,2.79-6.53,4.09-11,6.49-.67-1.26-1-1.89-1.69-3.15,4.38-2.35,6.54-3.61,10.76-6.34a7.14,7.14,0,0,0,1.52-1.38,6.5,6.5,0,0,0,1-1.65,4.13,4.13,0,0,0,.31-1.62,2.3,2.3,0,0,0-.4-1.35,2.92,2.92,0,0,0-.93-.82,3.29,3.29,0,0,0-1.39-.44,4.69,4.69,0,0,0-1.75.14,6.17,6.17,0,0,0-2,.88c-1.2.78-1.81,1.16-3,1.91a14,14,0,0,1-7.71,2.4,5.76,5.76,0,0,1-5.44-6,7.32,7.32,0,0,1,.9-3,11.73,11.73,0,0,1,2.15-2.8,18.61,18.61,0,0,1,3.24-2.49,37.56,37.56,0,0,1,4.3-2.27,49.4,49.4,0,0,1,5.33-2.08c.23,1.47.35,2.21.55,3.69a32.5,32.5,0,0,0-4.66,1.8c-1.41.69-2.65,1.35-3.72,2a9.38,9.38,0,0,0-3.29,3,2.75,2.75,0,0,0-.22,2.82,2.52,2.52,0,0,0,1.25,1.2,3.71,3.71,0,0,0,1.62.19,6,6,0,0,0,1.85-.54,21.94,21.94,0,0,0,2-1c1.22-.73,1.82-1.1,3-1.86a12.2,12.2,0,0,1,3.49-1.62,11,11,0,0,1,3.37-.42,7.88,7.88,0,0,1,2.95.67,5.39,5.39,0,0,1,2.17,1.7,4.93,4.93,0,0,1,1,2.74"/><path d="M61.42,52.81V13.1c0-2.29,0-2.3-2.24-2.3-4,0-8.07-.07-12.1,0-1.69,0-2.19-.59-2.1-2.18a49.54,49.54,0,0,0,0-5.45C44.88,1.51,45.54,1,47.15,1h46a25.59,25.59,0,0,1,26,25.17q0,1.13-.06,2.25c-.37,6.56-3.61,11.75-8.32,16.07-1.14,1-.93,1.29.32,1.82,9.94,4.24,14.72,12,15.23,22.59.74,15.58-9.18,25.62-23.06,29.39-12,3.28-23.94,2.31-35.72-1.42-1.36-.43-2.68-1-4.05-1.32-1.62-.39-2.11-1.33-2.1-2.94C61.44,79.39,61.42,66.1,61.42,52.81ZM71.07,70c0,5.34.06,10.67,0,16a2.2,2.2,0,0,0,1.77,2.54l.23,0A60.68,60.68,0,0,0,96.54,90a27.54,27.54,0,0,0,12.38-4.45c8.26-5.73,10.45-18.38,4.41-25.92-4.08-5.09-9.8-6.73-16-7.21-8.16-.64-16.34-.2-24.51-.36-1.39,0-1.74.5-1.73,1.79C71.1,59.22,71.07,64.61,71.07,70Zm0-43.49V40.67c0,1.25.41,1.7,1.67,1.69,7.56,0,15.11.08,22.66-.08A13.57,13.57,0,0,0,106,36.91a15.29,15.29,0,0,0,2-16.67c-2.74-6.08-7.73-9.27-14.42-9.41-6.92-.14-13.85,0-20.78,0-1.36,0-1.77.45-1.75,1.77C71.11,17.21,71.07,21.86,71.07,26.52Z"/><path d="M160.64,98.45H145.13c-1.41,0-1.95-.48-1.89-1.87.06-1.7,0-3.41,0-5.11,0-2.65,0-2.69,2.64-2.69h28.29A18,18,0,0,0,191.55,75.3a18.4,18.4,0,0,0-17.72-23.22c-4.6-.06-9.18.12-13.76-.68-10.52-1.83-19.13-9.21-21.12-19C136.25,19,141.51,7.57,155,2.57c7.71-2.87,15.64-3,23.68-2a67.08,67.08,0,0,1,16.41,4.36c1.45.57,2,1.22,1.32,2.77a47.74,47.74,0,0,0-1.89,5.47c-.39,1.37-.91,1.66-2.28,1.07a54.36,54.36,0,0,0-24.43-4.4c-5.15.26-10.1,1.26-14.4,4.5-5.16,3.89-6.07,9.27-5.22,15.1.8,5.53,4.21,9.2,9.36,11.2a26.79,26.79,0,0,0,9.33,1.74c4.3,0,8.61-.23,12.9.65,11.35,2.34,20.37,12.45,21.92,24,2,14.55-8.77,29.51-24.4,31.37a26.09,26.09,0,0,1-3.06.12C169.73,98.45,165.18,98.45,160.64,98.45Z"/></g></g></svg>