<svg xmlns="http://www.w3.org/2000/svg" xmlns:xlink="http://www.w3.org/1999/xlink" viewBox="0 0 245.69 217.02"><defs><style>.cls-1{fill:none;}.cls-2{clip-path:url(#clip-path);}.cls-3{fill:#fff;}.cls-4{fill:#ac1f23;}</style><clipPath id="clip-path" transform="translate(0 -66.55)"><rect class="cls-1" width="245.69" height="283.57"/></clipPath></defs><title>logo-wbg2</title><g id="Layer_2" data-name="Layer 2"><g id="Layer_1-2" data-name="Layer 1"><g class="cls-2"><rect class="cls-3" y="10.79" width="245.69" height="15.85"/><rect class="cls-3" y="51.34" width="245.69" height="15.85"/><rect class="cls-3" y="89.6" width="245.69" height="15.85"/><path class="cls-4" d="M55.58,262.66a7.39,7.39,0,0,1-3.07.95,11.31,11.31,0,0,1-3.71-.29,12.86,12.86,0,0,1-3.8-1.56,128.06,128.06,0,0,1-10.73-7.14l2.1-2.89a124.84,124.84,0,0,0,10.48,7,6.46,6.46,0,0,0,1.89.76,6.07,6.07,0,0,0,1.9.16,4.32,4.32,0,0,0,1.58-.43,2.53,2.53,0,0,0,1-1,3.13,3.13,0,0,0,.34-1.2,3.52,3.52,0,0,0-.2-1.44,4.82,4.82,0,0,0-.88-1.5,6.13,6.13,0,0,0-1.63-1.37c-1.22-.74-1.83-1.11-3-1.89a14.35,14.35,0,0,1-5.59-5.94,5.44,5.44,0,0,1,.69-5.76,5.2,5.2,0,0,1,2.34-1.8,7.56,7.56,0,0,1,3.09-.44,12,12,0,0,1,3.49.74,18.89,18.89,0,0,1,3.68,1.84,40.76,40.76,0,0,1,3.9,2.87,48.24,48.24,0,0,1,4.11,3.85c-1.2.86-1.81,1.28-3,2.12a31.91,31.91,0,0,0-3.6-3.37,41.19,41.19,0,0,0-3.42-2.47,9.47,9.47,0,0,0-4.18-1.66,2.73,2.73,0,0,0-2.65,1,2.46,2.46,0,0,0-.53,1.65A3.57,3.57,0,0,0,46.7,245a5.76,5.76,0,0,0,1.3,1.44,19.36,19.36,0,0,0,1.81,1.31c1.19.78,1.79,1.16,3,1.92a11.93,11.93,0,0,1,2.93,2.41A10.64,10.64,0,0,1,57.55,255a8,8,0,0,1,.65,2.93,5.54,5.54,0,0,1-.6,2.68,5,5,0,0,1-2,2.09" transform="translate(0 -66.55)"/><path class="cls-4" d="M96.32,270.15A2.81,2.81,0,0,1,96,271a119.54,119.54,0,0,1-25.42-7.72,6.8,6.8,0,0,0,.35,3,9.73,9.73,0,0,0,1.63,2.85,13,13,0,0,0,2.69,2.43,13.31,13.31,0,0,0,3.58,1.73c3.36,1.08,5,1.57,8.46,2.45l-.9,3.46c-3.48-.9-5.22-1.4-8.66-2.51a19.69,19.69,0,0,1-6-3.06,16,16,0,0,1-4.07-4.38,11.46,11.46,0,0,1-1.73-5,9.24,9.24,0,0,1,.79-4.86,10,10,0,0,1,3-3.83,13.74,13.74,0,0,1,4.47-2.29,17.73,17.73,0,0,1,5.32-.75,18.29,18.29,0,0,1,5.63.92A17.76,17.76,0,0,1,90.25,256a16.89,16.89,0,0,1,3.81,3.69,13.91,13.91,0,0,1,2.28,4.47,10.08,10.08,0,0,1,.24,4.88c-.08.38-.17.74-.26,1.1m-4.63-6.68A9.9,9.9,0,0,0,90,260.7a11.84,11.84,0,0,0-2.59-2.25,14,14,0,0,0-6.92-2.23,12.43,12.43,0,0,0-3.44.31,9.91,9.91,0,0,0-3,1.26,7.72,7.72,0,0,0-2.27,2.14,116.1,116.1,0,0,0,20.5,6.6,7.81,7.81,0,0,0-.57-3.06" transform="translate(0 -66.55)"/><path class="cls-4" d="M128.81,264.18a13.15,13.15,0,0,0-4.56-.84,12.89,12.89,0,0,0-4,.6,11.67,11.67,0,0,0-3.39,1.68,9.55,9.55,0,0,0-2.45,2.54,7.07,7.07,0,0,0-1.12,3.26l-1,12.15c-2-.16-3-.26-4.92-.48l2.3-20c-3-.35-4.52-.56-7.52-1.08.24-1.41.36-2.11.61-3.52A107.36,107.36,0,0,0,114.19,260l-.3,3.67a11.86,11.86,0,0,1,4.63-2.86,16.57,16.57,0,0,1,5.75-1,18.09,18.09,0,0,1,6.3,1.14c-.69,1.32-1,2-1.76,3.28" transform="translate(0 -66.55)"/><path class="cls-4" d="M152,282.73a145.31,145.31,0,0,1-18.06-22.64c1.87-.13,2.8-.21,4.66-.41a131.22,131.22,0,0,0,12,15,131.81,131.81,0,0,0,6.18-18.24c1.83-.46,2.74-.71,4.55-1.23A146.75,146.75,0,0,1,152,282.73" transform="translate(0 -66.55)"/><path class="cls-4" d="M179.89,274c-2.87-7.53-4.31-11.29-7.18-18.81-2.85,1.09-4.29,1.59-7.19,2.51-.43-1.36-.65-2-1.08-3.41a107,107,0,0,0,11-4l9.18,21.85c-1.88.79-2.83,1.17-4.73,1.9m-8-31.08a3,3,0,0,1-1.67,1.52,3.08,3.08,0,0,1-2.31,0,2.49,2.49,0,0,1-1.49-1.52,2.57,2.57,0,0,1,.13-2.1,2.93,2.93,0,0,1,1.66-1.51,2.89,2.89,0,0,1,2.2,0,2.6,2.6,0,0,1,1.53,1.43,2.51,2.51,0,0,1,0,2.14" transform="translate(0 -66.55)"/><path class="cls-4" d="M214.17,250.2a7.83,7.83,0,0,1-.52,3.21,11.81,11.81,0,0,1-1.92,3.24,13.45,13.45,0,0,1-3.08,2.75c-4.32,2.79-6.53,4.09-11,6.49-.67-1.26-1-1.89-1.69-3.15,4.38-2.35,6.54-3.61,10.76-6.34a6.89,6.89,0,0,0,1.52-1.38,6.17,6.17,0,0,0,1-1.65,4.06,4.06,0,0,0,.31-1.62,2.32,2.32,0,0,0-.4-1.35,3,3,0,0,0-.93-.82,3.59,3.59,0,0,0-1.39-.44,4.91,4.91,0,0,0-1.75.14,6.17,6.17,0,0,0-2,.88c-1.2.78-1.81,1.16-3,1.91a14,14,0,0,1-7.71,2.4,5.76,5.76,0,0,1-5.44-6,7.36,7.36,0,0,1,.9-3,11.94,11.94,0,0,1,2.15-2.8,19.11,19.11,0,0,1,3.24-2.49,41,41,0,0,1,4.3-2.27,51.57,51.57,0,0,1,5.33-2.08c.23,1.47.35,2.21.55,3.69a32.5,32.5,0,0,0-4.66,1.8c-1.41.69-2.65,1.35-3.72,2a9.38,9.38,0,0,0-3.29,3,2.75,2.75,0,0,0-.22,2.82,2.48,2.48,0,0,0,1.25,1.2,3.57,3.57,0,0,0,1.62.19,5.71,5.71,0,0,0,1.85-.54,21.94,21.94,0,0,0,2-1c1.22-.73,1.82-1.1,3-1.86a12.47,12.47,0,0,1,3.49-1.62,11.29,11.29,0,0,1,3.37-.42,8.08,8.08,0,0,1,2.95.67,5.48,5.48,0,0,1,2.17,1.7,5,5,0,0,1,1,2.74" transform="translate(0 -66.55)"/><path d="M61.42,119.36V79.65c0-2.29,0-2.3-2.24-2.3-4,0-8.07-.07-12.1,0-1.69.05-2.19-.59-2.1-2.18a49.54,49.54,0,0,0,0-5.45c-.1-1.66.56-2.15,2.17-2.14h46a25.59,25.59,0,0,1,26,25.17q0,1.13-.06,2.25c-.37,6.56-3.61,11.75-8.32,16.07-1.14,1-.93,1.29.32,1.82,9.94,4.24,14.72,12,15.23,22.59.74,15.58-9.18,25.62-23.06,29.39-12,3.28-23.94,2.31-35.72-1.42-1.36-.43-2.68-1-4.05-1.32-1.62-.39-2.11-1.33-2.1-2.94C61.44,145.94,61.42,132.65,61.42,119.36Zm9.65,17.2c0,5.34.06,10.67,0,16a2.19,2.19,0,0,0,1.77,2.54l.23,0a60.49,60.49,0,0,0,23.47,1.38,27.54,27.54,0,0,0,12.38-4.45c8.26-5.73,10.45-18.38,4.41-25.92-4.08-5.09-9.8-6.73-16-7.21-8.16-.64-16.34-.2-24.51-.36-1.39,0-1.74.5-1.73,1.79C71.1,125.77,71.07,131.16,71.07,136.56Zm0-43.49v14.15c0,1.25.41,1.7,1.67,1.69,7.56,0,15.11.08,22.66-.08a13.54,13.54,0,0,0,10.6-5.37,15.28,15.28,0,0,0,2-16.67c-2.74-6.08-7.73-9.27-14.42-9.41-6.92-.14-13.85,0-20.78,0-1.36,0-1.77.45-1.75,1.77C71.11,83.76,71.07,88.41,71.07,93.07Z" transform="translate(0 -66.55)"/><path d="M160.64,165H145.13c-1.41,0-1.95-.48-1.89-1.87.06-1.7,0-3.41,0-5.11,0-2.65,0-2.69,2.64-2.69h28.29a18,18,0,0,0,17.38-13.48,18.43,18.43,0,0,0-17.72-23.22c-4.6-.06-9.18.12-13.76-.68-10.52-1.83-19.13-9.21-21.12-19-2.7-13.37,2.56-24.83,16.07-29.83,7.71-2.87,15.64-3,23.68-2a67.08,67.08,0,0,1,16.41,4.36c1.45.57,2,1.22,1.32,2.77a47.74,47.74,0,0,0-1.89,5.47c-.39,1.37-.91,1.66-2.28,1.07a54.5,54.5,0,0,0-24.43-4.4c-5.15.26-10.1,1.26-14.4,4.5-5.16,3.89-6.07,9.27-5.22,15.1.8,5.53,4.21,9.2,9.36,11.2a26.79,26.79,0,0,0,9.33,1.74c4.3,0,8.61-.23,12.9.65,11.35,2.34,20.37,12.45,21.92,24,2,14.55-8.77,29.51-24.4,31.37a26.09,26.09,0,0,1-3.06.12C169.73,165,165.18,165,160.64,165Z" transform="translate(0 -66.55)"/></g></g></g></svg>