<?xml version="1.0" encoding="utf-8"?>
<!-- Generator: Adobe Illustrator 22.0.1, SVG Export Plug-In . SVG Version: 6.00 Build 0)  -->
<svg version="1.1" id="Layer_1" xmlns="http://www.w3.org/2000/svg" xmlns:xlink="http://www.w3.org/1999/xlink" x="0px" y="0px"
	 viewBox="0 0 245.7 283.6" style="enable-background:new 0 0 245.7 283.6;" xml:space="preserve">
<style type="text/css">
	.st0{clip-path:url(#SVGID_2_);}
	.st1{fill:#FFFFFF;}
	.st2{clip-path:url(#SVGID_2_);fill:#AC1F23;}
</style>
<title>logo-wbg</title>
<g>
	<defs>
		<rect id="SVGID_1_" width="245.7" height="283.6"/>
	</defs>
	<clipPath id="SVGID_2_">
		<use xlink:href="#SVGID_1_"  style="overflow:visible;"/>
	</clipPath>
	<g class="st0">
		<rect y="77.3" class="st1" width="245.7" height="15.8"/>
		<rect y="117.9" class="st1" width="245.7" height="15.8"/>
		<rect y="156.2" class="st1" width="245.7" height="15.8"/>
	</g>
	<path class="st2" d="M55.6,262.7c-0.9,0.5-2,0.9-3.1,1c-1.2,0.1-2.5,0-3.7-0.3c-1.3-0.3-2.6-0.8-3.8-1.6c-3.7-2.2-7.3-4.6-10.7-7.1
		l2.1-2.9c3.4,2.5,6.9,4.8,10.5,7c0.6,0.4,1.2,0.6,1.9,0.8c0.6,0.2,1.3,0.2,1.9,0.2c0.5,0,1.1-0.2,1.6-0.4c0.4-0.2,0.8-0.6,1-1
		c0.2-0.4,0.3-0.8,0.3-1.2c0-0.5,0-1-0.2-1.4c-0.2-0.5-0.5-1.1-0.9-1.5c-0.5-0.5-1-1-1.6-1.4c-1.2-0.7-1.8-1.1-3-1.9
		c-2.4-1.4-4.3-3.5-5.6-5.9c-0.9-1.9-0.6-4.1,0.7-5.8c0.6-0.8,1.4-1.4,2.3-1.8c1-0.4,2-0.5,3.1-0.4c1.2,0.1,2.4,0.3,3.5,0.7
		c1.3,0.5,2.5,1.1,3.7,1.8c1.4,0.9,2.7,1.8,3.9,2.9c1.4,1.2,2.8,2.5,4.1,3.9c-1.2,0.9-1.8,1.3-3,2.1c-1.1-1.2-2.3-2.3-3.6-3.4
		c-1.1-0.9-2.2-1.7-3.4-2.5c-1.2-0.9-2.7-1.5-4.2-1.7c-1-0.2-2,0.2-2.7,1c-0.4,0.5-0.6,1.1-0.5,1.6c0.1,0.6,0.2,1.1,0.5,1.5
		c0.3,0.5,0.8,1,1.3,1.4c0.6,0.5,1.2,0.9,1.8,1.3c1.2,0.8,1.8,1.2,3,1.9c1.1,0.6,2.1,1.5,2.9,2.4c0.8,0.9,1.4,1.9,1.8,2.9
		c0.4,0.9,0.6,1.9,0.7,2.9c0,0.9-0.2,1.9-0.6,2.7C57.2,261.5,56.5,262.2,55.6,262.7"/>
	<path class="st2" d="M96.3,270.1c-0.1,0.3-0.2,0.6-0.3,0.9c-8.7-1.6-17.3-4.2-25.4-7.7c-0.1,1,0,2,0.3,3c0.4,1,0.9,2,1.6,2.9
		c0.8,0.9,1.7,1.8,2.7,2.4c1.1,0.8,2.3,1.3,3.6,1.7c3.4,1.1,5,1.6,8.5,2.5l-0.9,3.5c-3.5-0.9-5.2-1.4-8.7-2.5
		c-2.2-0.7-4.2-1.7-6-3.1c-1.6-1.2-3-2.7-4.1-4.4c-1-1.5-1.5-3.2-1.7-5c-0.2-1.7,0.1-3.3,0.8-4.9c0.7-1.5,1.7-2.8,3-3.8
		c1.3-1,2.9-1.8,4.5-2.3c1.7-0.5,3.5-0.8,5.3-0.8c1.9,0,3.8,0.3,5.6,0.9c1.8,0.6,3.6,1.4,5.1,2.6c1.5,1,2.7,2.3,3.8,3.7
		c1,1.3,1.8,2.9,2.3,4.5c0.5,1.6,0.6,3.3,0.2,4.9C96.5,269.4,96.4,269.8,96.3,270.1 M91.7,263.5c-0.4-1-1-1.9-1.7-2.8
		c-0.8-0.9-1.6-1.6-2.6-2.3c-2.1-1.3-4.5-2.1-6.9-2.2c-1.2-0.1-2.3,0-3.4,0.3c-1.1,0.2-2.1,0.7-3,1.3c-0.9,0.6-1.7,1.3-2.3,2.1
		c6.6,2.8,13.5,5,20.5,6.6C92.3,265.5,92.1,264.4,91.7,263.5"/>
	<path class="st2" d="M128.8,264.2c-1.5-0.5-3-0.8-4.6-0.8c-1.4,0-2.7,0.2-4,0.6c-1.2,0.4-2.4,0.9-3.4,1.7c-1,0.7-1.8,1.6-2.4,2.5
		c-0.6,1-1,2.1-1.1,3.3c-0.4,4.9-0.6,7.3-1,12.1c-2-0.2-3-0.3-4.9-0.5l2.3-20c-3-0.4-4.5-0.6-7.5-1.1c0.2-1.4,0.4-2.1,0.6-3.5
		c3.8,0.7,7.6,1.2,11.4,1.5l-0.3,3.7c1.3-1.3,2.9-2.3,4.6-2.9c1.8-0.7,3.8-1,5.8-1c2.2,0,4.3,0.4,6.3,1.1
		C129.9,262.3,129.6,263,128.8,264.2"/>
	<path class="st2" d="M152,282.7c-6.8-6.9-12.8-14.5-18.1-22.6c1.9-0.1,2.8-0.2,4.7-0.4c3.6,5.3,7.6,10.3,12,15
		c2.5-5.9,4.6-12,6.2-18.2c1.8-0.5,2.7-0.7,4.6-1.2C159.1,264.7,156,273.9,152,282.7"/>
	<path class="st2" d="M179.9,274c-2.9-7.5-4.3-11.3-7.2-18.8c-2.9,1.1-4.3,1.6-7.2,2.5c-0.4-1.4-0.6-2-1.1-3.4c3.7-1.1,7.4-2.5,11-4
		l9.2,21.9C182.7,272.9,181.8,273.3,179.9,274 M171.9,243c-0.3,0.7-0.9,1.3-1.7,1.5c-0.7,0.3-1.6,0.3-2.3,0
		c-0.7-0.3-1.2-0.8-1.5-1.5c-0.3-0.7-0.2-1.5,0.1-2.1c0.3-0.7,0.9-1.2,1.7-1.5c0.7-0.3,1.5-0.3,2.2,0c0.7,0.2,1.2,0.8,1.5,1.4
		C172.3,241.5,172.3,242.2,171.9,243"/>
	<path class="st2" d="M214.2,250.2c0.1,1.1-0.1,2.2-0.5,3.2c-0.5,1.2-1.1,2.3-1.9,3.2c-0.9,1.1-1.9,2-3.1,2.8
		c-4.3,2.8-6.5,4.1-11,6.5c-0.7-1.3-1-1.9-1.7-3.1c4.4-2.4,6.5-3.6,10.8-6.3c0.6-0.4,1.1-0.8,1.5-1.4c0.4-0.5,0.8-1.1,1-1.6
		c0.2-0.5,0.3-1.1,0.3-1.6c0-0.5-0.1-1-0.4-1.4c-0.2-0.3-0.6-0.6-0.9-0.8c-0.4-0.2-0.9-0.4-1.4-0.4c-0.6-0.1-1.2,0-1.8,0.1
		c-0.7,0.2-1.4,0.5-2,0.9c-1.2,0.8-1.8,1.2-3,1.9c-2.3,1.5-5,2.4-7.7,2.4c-3.2-0.2-5.6-2.8-5.4-6c0.1-1.1,0.4-2.1,0.9-3
		c0.6-1,1.3-2,2.1-2.8c1-0.9,2.1-1.8,3.2-2.5c1.4-0.8,2.8-1.6,4.3-2.3c1.7-0.8,3.5-1.5,5.3-2.1c0.2,1.5,0.4,2.2,0.6,3.7
		c-1.6,0.5-3.2,1.1-4.7,1.8c-1.4,0.7-2.6,1.4-3.7,2c-1.3,0.7-2.4,1.8-3.3,3c-0.6,0.8-0.7,1.9-0.2,2.8c0.3,0.5,0.7,1,1.3,1.2
		c0.5,0.2,1.1,0.3,1.6,0.2c0.6-0.1,1.3-0.3,1.9-0.5c0.7-0.3,1.4-0.6,2-1c1.2-0.7,1.8-1.1,3-1.9c1.1-0.7,2.3-1.3,3.5-1.6
		c1.1-0.3,2.2-0.5,3.4-0.4c1,0,2,0.3,2.9,0.7c0.9,0.4,1.6,1,2.2,1.7C213.8,248.3,214.2,249.2,214.2,250.2"/>
	<path class="st0" d="M61.4,119.4c0-13.2,0-26.5,0-39.7c0-2.3,0-2.3-2.2-2.3c-4,0-8.1-0.1-12.1,0c-1.7,0.1-2.2-0.6-2.1-2.2
		c0.1-1.8,0.1-3.6,0-5.4c-0.1-1.7,0.6-2.2,2.2-2.1c9,0,18.1,0,27.1,0h18.9c14.1-0.2,25.8,11,26,25.2c0,0.8,0,1.5-0.1,2.2
		c-0.4,6.6-3.6,11.8-8.3,16.1c-1.1,1-0.9,1.3,0.3,1.8c9.9,4.2,14.7,12,15.2,22.6c0.7,15.6-9.2,25.6-23.1,29.4
		c-12,3.3-23.9,2.3-35.7-1.4c-1.4-0.4-2.7-1-4-1.3c-1.6-0.4-2.1-1.3-2.1-2.9C61.4,145.9,61.4,132.6,61.4,119.4z M71.1,136.6
		c0,5.3,0.1,10.7,0,16c-0.2,1.2,0.6,2.3,1.8,2.5c0.1,0,0.2,0,0.2,0c7.7,2,15.6,2.5,23.5,1.4c4.4-0.5,8.7-2,12.4-4.4
		c8.3-5.7,10.4-18.4,4.4-25.9c-4.1-5.1-9.8-6.7-16-7.2c-8.2-0.6-16.3-0.2-24.5-0.4c-1.4,0-1.7,0.5-1.7,1.8
		C71.1,125.8,71.1,131.2,71.1,136.6z M71.1,93.1c0,4.7,0,9.4,0,14.2c0,1.3,0.4,1.7,1.7,1.7c7.6,0,15.1,0.1,22.7-0.1
		c4.2-0.1,8.1-2,10.6-5.4c3.9-4.7,4.7-11.2,2-16.7c-2.7-6.1-7.7-9.3-14.4-9.4c-6.9-0.1-13.8,0-20.8,0c-1.4,0-1.8,0.4-1.8,1.8
		C71.1,83.8,71.1,88.4,71.1,93.1z"/>
	<path class="st0" d="M160.6,165c-5.2,0-10.3,0-15.5,0c-1.4,0-1.9-0.5-1.9-1.9c0.1-1.7,0-3.4,0-5.1c0-2.6,0-2.7,2.6-2.7
		c9.4,0,18.9,0,28.3,0c8.2,0,15.3-5.6,17.4-13.5c2.7-9.8-3.2-19.9-13-22.6c-1.5-0.4-3.1-0.6-4.7-0.6c-4.6-0.1-9.2,0.1-13.8-0.7
		c-10.5-1.8-19.1-9.2-21.1-19c-2.7-13.4,2.6-24.8,16.1-29.8c7.7-2.9,15.6-3,23.7-2c5.6,0.8,11.1,2.2,16.4,4.4c1.4,0.6,2,1.2,1.3,2.8
		c-0.7,1.8-1.4,3.6-1.9,5.5c-0.4,1.4-0.9,1.7-2.3,1.1c-7.7-3.3-16.1-4.8-24.4-4.4c-5.1,0.3-10.1,1.3-14.4,4.5
		c-5.2,3.9-6.1,9.3-5.2,15.1c0.8,5.5,4.2,9.2,9.4,11.2c3,1.1,6.1,1.7,9.3,1.7c4.3,0,8.6-0.2,12.9,0.7c11.4,2.3,20.4,12.4,21.9,24
		c2,14.6-8.8,29.5-24.4,31.4c-1,0.1-2,0.1-3.1,0.1C169.7,165,165.2,165,160.6,165z"/>
</g>
</svg>
